<svg width="156" height="156" viewBox="0 0 156 156" fill="none" xmlns="http://www.w3.org/2000/svg">
<rect width="156" height="156" fill="white"/>
<g clip-path="url(#clip0)">
<path d="M117.5 84.2857C116.214 92.6428 112.357 100.214 106.286 106.286C100.214 112.357 92.6429 116.214 84.2857 117.5C84.2857 117.429 84.2143 117.357 84.2143 117.286V117.214C84.1429 117.071 84.1429 117 84.0714 116.786C84 116.571 83.9286 116.357 83.8572 116.143C83.5 115.143 83.2857 114 83.0714 112.857V112.786C83.0714 112.643 83 112.5 83 112.357V112.286C83 112.143 82.9286 112 82.9286 111.929V111.786C82.9286 111.643 82.8572 111.5 82.8572 111.286C82.7857 110.929 82.7857 110.571 82.7857 110.143V110C82.7857 109.929 82.7857 109.857 82.7857 109.786V109.643C82.7857 109.214 82.7143 108.786 82.7143 108.286C82.7143 94.1428 94.2857 82.5714 108.429 82.5714C108.857 82.5714 109.357 82.5714 109.786 82.5714H109.929C110 82.5714 110.071 82.5714 110.143 82.5714H110.286C110.643 82.5714 111.071 82.6428 111.429 82.7143C111.571 82.7143 111.786 82.7143 112 82.7857C112.143 82.7857 112.286 82.8571 112.357 82.8571H112.429C112.571 82.8571 112.714 82.8571 112.857 82.9286H112.929C114.071 83.1428 115.143 83.4286 116.286 83.7857C116.5 83.8571 116.714 83.9286 116.929 84C117.071 84.0714 117.143 84.0714 117.286 84.1428H117.357C117.357 84.2143 117.429 84.2857 117.5 84.2857Z" fill="#FF7E1D"/>
<path opacity="0.6" d="M118 78.4286H117.929C117.286 78.2143 116.643 78.0715 116 77.8572C115.929 77.8572 115.857 77.7858 115.714 77.7858C115.143 77.6429 114.571 77.5 113.929 77.4286C113.929 77.4286 113.929 77.4286 113.857 77.4286C113.714 77.4286 113.5 77.3572 113.357 77.3572H113.214C113 77.3572 112.786 77.2858 112.643 77.2858C112.429 77.2858 112.143 77.2143 112 77.2143C111.571 77.1429 111.071 77.1429 110.643 77.0715C110.5 77.0715 110.357 77.0715 110.214 77.0715H109.857C109.357 77.0715 108.857 77.0715 108.286 77.0715C90.9286 77.0715 76.8571 91.1429 76.8571 108.5C76.8571 109 76.8571 109.5 76.9286 110.071V110.429C76.9286 110.571 76.9286 110.714 77 110.857C77.0714 111.286 77.0714 111.786 77.1428 112.214C77.1428 112.429 77.2143 112.643 77.2143 112.857C77.2143 113.071 77.2857 113.286 77.2857 113.429C77.3571 113.714 77.3571 113.929 77.4286 114.143C77.6428 115.5 78 116.857 78.4286 118.214C78.4286 118.214 78.4286 118.214 78.4286 118.286C69.5714 118.429 61.1428 115.643 54.0714 110.357C54.0714 110.214 54.0714 110.071 54.0714 110C54.0714 109.571 54.0714 109.071 54.0714 108.643C54.0714 78.7143 78.4286 54.3572 108.357 54.3572C108.786 54.3572 109.286 54.3572 109.714 54.3572C109.857 54.3572 110 54.3572 110.071 54.3572C115.357 61.0715 118.071 69.5715 118 78.4286Z" fill="#FF7E1D"/>
<path opacity="0.3" d="M104.929 48.3572C104.643 48.3572 104.286 48.4286 104 48.4286C103.5 48.4286 103.071 48.5001 102.571 48.5715C102.429 48.5715 102.214 48.5715 102.071 48.6429C101.929 48.6429 101.857 48.6429 101.714 48.7143C100.857 48.7858 100 48.9286 99.1428 49.0715C98.5 49.1429 97.9286 49.2858 97.2857 49.3572C96.9286 49.4286 96.5 49.5001 96.1428 49.5715C95.7143 49.6429 95.2857 49.7858 94.7857 49.8572C94.6428 49.9286 94.4286 49.9286 94.2857 50.0001C94 50.0715 93.6428 50.1429 93.3571 50.2143C93.2143 50.2143 93.1428 50.2858 93 50.2858C92.6428 50.3572 92.2857 50.4286 92 50.5715C91.8571 50.6429 91.6428 50.6429 91.5 50.7143C91.2143 50.7858 91 50.8572 90.7143 50.9286C90.5 51.0001 90.2857 51.0715 90.1428 51.1429C89.7857 51.2143 89.5 51.3572 89.2143 51.4286C89.1428 51.4286 89.0714 51.5001 89 51.5001C88.5714 51.6429 88.1428 51.7858 87.7143 52.0001C87.2143 52.1429 86.7857 52.3572 86.3571 52.5001C86.0714 52.5715 85.7857 52.7143 85.5714 52.8572C85.2857 52.9286 85.0714 53.0715 84.7857 53.1429C84.3571 53.3572 83.8571 53.5001 83.4286 53.7143C82.6428 54.0715 81.8571 54.4286 81.0714 54.8572C80.0714 55.3572 79.1428 55.8572 78.1428 56.4286C77.8571 56.6429 77.5 56.7858 77.2143 57.0001C76.8571 57.2143 76.5 57.4286 76.0714 57.7143C75.7143 57.9286 75.3571 58.1429 75.0714 58.3572C74.7857 58.5715 74.4285 58.7858 74.1428 59.0001C73.8571 59.2143 73.5714 59.4286 73.2857 59.6429C72.5714 60.1429 71.9285 60.6429 71.2857 61.1429C71 61.3572 70.7857 61.5715 70.5 61.7858C70.0714 62.1429 69.5714 62.5715 69.1428 62.9286C68.7857 63.2143 68.4285 63.5715 68.0714 63.8572C67.7857 64.0715 67.5714 64.3572 67.2857 64.5715C66.4286 65.4286 65.5714 66.2143 64.7143 67.1429C64.4286 67.4286 64.2143 67.6429 64 67.9286C63.6428 68.2858 63.3571 68.6429 63.0714 69.0001C62.6428 69.4286 62.2857 69.9286 61.9286 70.3572C61.7143 70.6429 61.5 70.8572 61.2857 71.1429C60.7857 71.7858 60.2857 72.5001 59.7857 73.1429C59.5714 73.4286 59.3571 73.7143 59.1428 74.0001C58.9286 74.2858 58.7143 74.6429 58.5 74.9286C58.2857 75.2858 58.0714 75.5715 57.8571 75.9286C57.6428 76.2858 57.3571 76.6429 57.1428 77.0715C56.9286 77.3572 56.7857 77.7143 56.5714 78.0001C56 78.9286 55.5 79.9286 55 80.8572C54.5714 81.6429 54.2143 82.4286 53.8571 83.2143C53.6428 83.6429 53.4286 84.0715 53.2857 84.5715C53.2143 84.7858 53.0714 85.0715 53 85.3572C52.8571 85.6429 52.7857 85.9286 52.6428 86.1429C52.4286 86.5715 52.2857 87.0715 52.1428 87.5001C52 87.9286 51.8571 88.3572 51.6428 88.7858C51.6428 88.8572 51.5714 88.9286 51.5714 89.0001C51.4286 89.2858 51.3571 89.6429 51.2857 89.9286C51.2143 90.1429 51.1428 90.3572 51.0714 90.5001C51 90.7858 50.9286 91.0001 50.8571 91.2858C50.7857 91.4286 50.7857 91.6429 50.7143 91.7858C50.6428 92.1429 50.5 92.5001 50.4286 92.7858C50.4286 92.8572 50.3571 93.0001 50.3571 93.1429C50.2857 93.4286 50.2143 93.7858 50.1428 94.0715C50.1428 94.2143 50.0714 94.3572 50 94.5715C49.9286 95.0001 49.7857 95.4286 49.7143 95.9286C49.6428 96.2858 49.5714 96.6429 49.5 97.0715C49.3571 97.7143 49.2857 98.2858 49.2143 98.9286C49.0714 99.7858 49 100.643 48.8571 101.5C48.8571 101.643 48.8571 101.714 48.7857 101.857C48.7857 102 48.7857 102.143 48.7143 102.357C48.6428 102.857 48.6428 103.286 48.5714 103.786C48.5714 104.071 48.5 104.429 48.5 104.714C41.7857 97.6429 38.1428 88.3572 38 78.5001C37.8571 68.0001 41.7857 58.0001 49 50.4286C49.2143 50.1429 49.5 49.9286 49.7143 49.7143C49.9286 49.5001 50.2143 49.2143 50.4286 49.0001C57.9286 41.9286 67.7143 38.0001 78 38.0001H78.5C88.3571 38.1429 97.6428 41.7858 104.929 48.3572Z" fill="#FF7E1D"/>
</g>
<defs>
<clipPath id="clip0">
<rect width="80" height="80" fill="white" transform="translate(38 38.0001)"/>
</clipPath>
</defs>
</svg>
